<svg width="287" height="351" viewBox="0 0 287 351" fill="none" xmlns="http://www.w3.org/2000/svg">
<path fill-rule="evenodd" clip-rule="evenodd" d="M122.871 86.938C125.407 86.938 126.786 86.0859 127.592 84.6411C128.517 82.9831 128.91 80.1596 128.363 75.7818C128.202 74.501 128.078 73.612 127.928 72.938C127.781 72.2759 127.637 71.9552 127.512 71.7622C127.27 71.3899 126.854 71.0718 124.852 70.1695L124.851 70.1685C122.504 69.1094 118.501 66.7399 115.869 64.8697C114.525 63.914 113.562 63.2341 112.824 62.7622C112.357 62.4642 112.05 62.298 111.855 62.2056C111.744 62.3256 111.615 62.4784 111.441 62.6872C111.441 62.6872 111.438 62.6956 111.431 62.7118C111.406 62.7652 111.34 62.9106 111.246 63.1949C111.107 63.6202 110.959 64.1973 110.817 64.898C110.569 66.1207 110.359 67.6229 110.238 69.1636L110.191 69.8257C110.015 72.6722 110.02 74.2961 110.248 75.5826C110.437 76.6448 110.793 77.5574 111.498 78.8306L111.823 79.3999C114.581 84.1334 119.056 86.9379 122.871 86.938ZM95.5384 62.0952C95.8217 62.016 95.9704 61.9896 96.0168 61.9814C96.0356 61.9781 96.0375 61.9777 96.0248 61.9781C96.4195 61.9679 96.9651 62.1326 97.5492 63.2105C98.1591 64.3363 98.6231 66.1922 98.7084 68.7827C98.9198 75.2135 96.7312 80.0305 93.9955 82.3443C92.6486 83.4833 91.2107 83.9946 89.8177 83.9322C88.4299 83.8699 86.8425 83.2265 85.2162 81.6001C82.8284 79.2124 82.1882 75.9128 83.1556 72.6089C84.1297 69.2825 86.7424 66.0045 90.7709 64.023C91.9465 63.4447 93.1853 62.9156 94.221 62.5327C94.7397 62.341 95.1878 62.1933 95.5384 62.0952ZM141.854 56.5757C140.491 59.884 137.852 61.9378 134.469 61.938C130.266 61.938 124.676 59.2344 120.739 55.9351C118.778 54.2924 117.464 52.694 116.928 51.482C116.665 50.8864 116.665 50.5561 116.689 50.4302L116.69 50.4255C116.698 50.3767 116.718 50.2706 116.982 50.107C117.311 49.9037 117.556 49.642 117.695 49.4839C117.858 49.2974 118.018 49.0876 118.165 48.8775C118.462 48.4554 118.785 47.9301 119.114 47.3531C119.774 46.1932 120.517 44.7129 121.195 43.1802C122.688 39.8026 124.389 37.7207 126.104 36.6743L126.672 36.3443C129.487 34.7925 131.871 34.727 133.981 35.7281C136.377 36.8654 138.831 39.5674 141.109 44.3042C143.223 48.702 143.23 53.2347 141.854 56.5757ZM72.6761 35.7232C73.5692 35.2024 75.4076 34.8769 77.7914 35.0493C80.0961 35.2161 82.5327 35.8229 84.4134 36.7691C86.7383 37.9387 89.2482 40.4282 91.0404 43.1499C91.9247 44.4929 92.5801 45.8118 92.9447 46.9497C93.3266 48.1419 93.309 48.883 93.1966 49.23C92.5763 51.1435 90.1497 52.8631 86.474 53.4576C82.9068 54.0344 78.9529 53.3834 76.2445 51.4546L76.0267 51.2925C73.7904 49.5667 72.0528 46.1441 71.4251 42.6372C71.1077 40.8632 71.1066 39.2274 71.3871 37.9605C71.6719 36.6742 72.1828 36.0107 72.6761 35.7232ZM97.7933 10.9829C99.0497 10.3367 100.237 10.2134 101.521 10.5738C102.879 10.9551 104.477 11.9183 106.378 13.7115C113.219 20.1638 114.971 31.1503 110.575 38.6509C109.972 39.6793 109.538 40.3894 109.176 40.897C108.809 41.4116 108.615 41.5709 108.541 41.6187L108.539 41.6207C108.529 41.6289 108.505 41.6494 108.348 41.6499C108.093 41.6508 107.701 41.5956 106.958 41.44C106.469 41.3367 105.673 40.9757 104.63 40.2593C103.621 39.5665 102.513 38.6327 101.418 37.5523C99.2032 35.3663 97.2225 32.7571 96.2533 30.6138C95.3604 28.6393 94.7096 25.5318 94.475 22.3501C94.2378 19.1353 94.4546 16.2391 95.0257 14.6343L95.1312 14.3618C95.3994 13.7159 95.8229 13.004 96.3226 12.3677C96.9152 11.6132 97.4686 11.1499 97.7933 10.9829Z" fill="#E2E18F"/>
<path d="M125.771 255.64C125.005 258.279 124.378 263.847 124.378 268.013C124.378 275.032 124.656 276.039 128.162 281.719L131.947 287.85L128.531 295.144C123.302 306.311 122.457 309.687 122.416 319.583C122.379 328.43 122.484 328.861 125.628 332.775C127.301 334.857 128.689 337.15 128.86 338.083L136.415 339.344C141.667 340.22 147.757 341.061 149.974 341.215C147.757 335.2 147.812 334.744 149.296 328.95C151.88 318.867 151.373 307.772 147.733 294.734C144.641 283.66 144.599 283.209 145.241 268.32L145.894 253.173L139.136 252.513C135.419 252.151 131.205 251.626 129.771 251.348C127.387 250.885 127.046 251.25 125.771 255.64Z" fill="#E2E18F"/>
<path d="M179.878 246.555C176.853 247.83 174.004 249.013 173.546 249.183C173.088 249.353 174.311 251.866 176.263 254.767C178.215 257.668 180.275 261.706 180.84 263.74C182.349 269.172 182.102 278.822 180.298 284.894L178.719 290.214L181.825 296.333C183.533 299.699 185.589 304.925 186.393 307.946C188.528 315.97 188.302 328.743 185.898 335.879L184.035 341.41C187.655 341.444 201.452 336.835 204.268 333.76C207.139 327.294 208.116 319.767 206.843 312.706C205.534 305.45 200.672 295.677 196.951 292.825C195.536 291.74 193.313 290.06 192.012 289.092L189.645 287.331L192.492 281.885C194.923 277.235 195.342 275.268 195.358 268.438C195.373 261.801 194.924 259.501 192.719 254.938C191.258 251.913 189.008 248.268 187.72 246.837L185.378 244.236L179.878 246.555Z" fill="#E2E18F"/>
<path fill-rule="evenodd" clip-rule="evenodd" d="M111.441 62.6872L111.406 62.73C111.428 62.7028 111.441 62.6872 111.441 62.6872Z" fill="#3B468B"/>
<path fill-rule="evenodd" clip-rule="evenodd" d="M240.163 6.96439C244.354 4.68289 249.303 4.74339 254.252 7.13919C263.665 11.6953 268.968 22.1094 267.502 32.8052C267.372 33.7548 267.29 34.4372 267.257 34.9419C271.58 35.0313 275.45 37.3393 278.511 40.9966C281.629 44.722 284.017 49.9543 285.397 56.1558C287.23 64.3962 286.514 72.2325 283.697 78.2964C280.868 84.3851 275.869 88.7454 269.282 89.6284C266.669 89.9789 263.089 89.1914 259.959 88.0367C256.827 86.8809 253.59 85.152 251.812 83.188C251.669 83.0303 251.538 82.8882 251.418 82.7613C251.259 83.1431 251.074 83.6253 250.855 84.2329C249.312 88.4992 245.92 92.6104 242.088 95.646C238.287 98.6571 233.702 100.884 229.594 100.916C221.923 100.975 216.02 95.1087 213.827 86.6743L213.626 85.8511L213.238 84.1402L210.644 87.6372C205.08 95.1388 196.417 112.085 192.293 123.612C188.909 133.073 184.692 149.499 182.64 161.157L182.448 162.27C181.509 167.84 180.35 176.373 179.486 183.585C179.254 185.519 179.044 187.352 178.866 189.003C180.89 185.6 184.004 181.755 187.134 178.52C188.82 176.779 190.542 175.18 192.145 173.899C193.712 172.646 195.291 171.592 196.677 171.065C202.364 168.903 207.689 169.752 211.122 173.149C214.532 176.521 215.588 181.923 213.81 187.858C211.887 194.277 207.215 199.585 198.081 206.537C186.276 215.524 180.027 223.884 178.361 232.018C178.263 232.497 178.198 232.834 178.158 233.082C178.166 233.084 178.174 233.086 178.183 233.088C178.716 233.214 179.475 233.332 180.637 233.506C183.397 233.92 187.202 235.29 189.256 236.675C191.826 238.407 194.628 241.671 196.985 245.195C199.362 248.75 201.454 252.824 202.481 256.353L202.675 257.054C203.612 260.622 204.045 265.047 204.023 269.281C203.999 273.777 203.461 278.293 202.32 281.495L201.161 284.74L204.431 288.288C214.789 299.525 218.571 317.117 213.942 332.162L213.94 332.169L213.922 332.225L213.888 332.338L213.84 332.446C212.494 335.484 210.402 338.627 208.076 341.245C205.779 343.829 203.088 346.089 200.474 347.133C199.879 347.371 199.254 347.596 198.602 347.807C191.141 350.227 179.531 351.155 166.696 350.842C153.803 350.528 139.46 348.955 126.427 346.246C124.135 345.769 121.88 345.257 119.681 344.71C117.936 344.275 116.224 343.819 114.553 343.341C110.477 342.175 106.196 340.602 102.409 338.965C99.3214 337.631 96.5184 336.237 94.4017 334.96C93.3477 334.325 92.4175 333.69 91.6957 333.081C91.0666 332.55 90.2652 331.773 89.9623 330.8C89.8371 330.399 89.7451 329.908 89.6711 329.513L89.6664 329.488L89.6498 329.401V329.399C88.7565 327.435 88.5653 326.218 88.4662 323.958C88.4008 322.468 88.3783 320.807 88.3783 318.917C88.3783 314.047 88.4245 311.109 88.8968 308.614C89.3831 306.045 90.3068 304.015 91.8197 300.942C93.6621 297.199 97.0354 292.016 99.4007 289.328L102.513 285.791L99.9271 281.227C98.3701 278.479 97.3921 276.656 96.8988 274.238C96.4258 271.919 96.4132 269.113 96.4437 264.424C96.4804 258.78 96.9629 254.249 98.2044 249.996C99.4486 245.733 101.424 241.855 104.324 237.478L107.993 231.938H115.953C117.616 231.938 118.821 231.931 119.729 231.884C120.66 231.837 121.096 231.753 121.304 231.681C121.351 231.574 121.429 231.344 121.562 230.816L121.613 230.556C121.664 230.231 121.716 229.705 121.752 228.951C121.799 227.988 121.815 226.773 121.803 225.361C121.779 222.539 121.642 218.996 121.42 215.238C120.975 207.701 120.195 199.419 119.331 194.415L119.015 192.649C117.347 183.691 114.473 172.896 112.286 167.404C112.134 167.021 111.996 166.697 111.87 166.426C111.59 166.796 111.231 167.325 110.78 168.061C109.904 169.49 108.813 171.478 107.404 174.135C105.546 177.638 103.803 180.523 102.133 182.782C100.475 185.024 98.8114 186.756 97.0794 187.839C95.2961 188.955 93.3898 189.409 91.4212 188.962C89.5258 188.533 87.8534 187.331 86.3441 185.723C84.0771 183.308 83.1804 179.642 83.2503 175.977C83.3214 172.257 84.3852 168.206 86.433 164.71L86.7835 164.128C88.5683 161.238 90.8583 158.628 93.2953 156.597C95.8675 154.454 98.749 152.837 101.5 152.344C103.074 152.062 104.086 151.852 104.735 151.632C104.66 151.484 104.561 151.302 104.43 151.085C103.897 150.2 103.029 149.013 101.765 147.332C97.663 141.875 93.0631 137.496 88.4945 134.497C83.9066 131.484 79.469 129.938 75.6566 129.938C71.8431 129.938 67.6548 132.088 63.6322 136.395C59.7573 140.544 56.205 146.53 53.5228 153.883L53.266 154.599C52.6601 156.318 52.5655 156.898 52.6185 157.34C52.673 157.795 52.9141 158.367 53.9183 159.954C54.8714 161.46 55.511 162.893 55.8753 164.708C56.2273 166.461 56.3072 168.5 56.2601 171.181L56.1683 176.431L58.1595 177.089L58.5482 177.227C62.5416 178.74 65.6907 182.964 67.5511 187.45C69.4993 192.147 70.324 197.803 68.9359 202.437C66.3617 211.027 57.0147 215.861 48.8753 212.46L46.849 211.613L45.4046 213.805C42.3177 218.49 38.3698 221.837 34.2337 223.381C30.0583 224.941 25.6519 224.655 22.0433 221.96C19.2186 219.852 17.2 217.86 15.9759 215.313C14.755 212.772 14.4391 209.917 14.515 206.322L14.5316 205.36C14.5539 203.568 14.5136 202.51 14.4193 201.885C13.4054 201.774 12.35 201.413 11.3773 200.975C10.1793 200.435 8.92798 199.696 7.74546 198.861C5.43952 197.232 3.10457 195.03 1.96714 192.893C-1.89779 185.628 0.068398 177.549 6.67124 171.994L7.24839 171.513C8.57129 170.43 9.75751 169.618 11.4251 169.24C13.1557 168.847 15.3067 168.955 18.5257 169.161L23.9193 169.506L24.721 166.071L24.9085 165.327C26.9802 157.691 33.1216 151.938 40.3207 151.938C41.3478 151.938 42.0584 151.921 42.5804 151.87C42.8344 151.844 43.0091 151.814 43.1283 151.785C43.1749 151.773 43.2082 151.759 43.2328 151.751C43.2835 151.642 43.3912 151.363 43.5404 150.729C44.15 148.14 46.065 144.062 48.2542 140.141C50.4675 136.177 53.1214 132.09 55.3666 129.473C60.9729 122.938 67.523 119.764 75.6224 119.808C86.8429 119.87 95.4967 124.574 105.629 135.518C122.187 153.403 131.878 186.073 131.878 222.435V231.949L147.677 231.482L149.124 226.391C149.614 224.666 149.991 222.826 150.202 221.245C150.427 219.573 150.428 218.463 150.34 218.05L150.298 217.904C150.234 217.71 150.099 217.373 149.856 216.876C149.551 216.254 149.133 215.494 148.626 214.644C147.613 212.946 146.284 210.961 144.896 209.115C140.195 202.866 136.486 196.453 134.304 191.108C133.216 188.444 132.474 185.963 132.209 183.855C131.958 181.857 132.071 179.689 133.332 178.168L133.547 177.918C134.64 176.691 136.026 175.8 137.739 175.741C139.503 175.68 141.127 176.526 142.578 177.747C145.429 180.143 148.593 184.822 152.312 191.618C151.965 189.461 151.46 186.978 150.814 184.24C149.493 178.647 147.619 172.133 145.424 165.421C141.027 151.973 135.394 137.888 130.452 128.956C123.832 116.989 118.493 108.529 111.302 98.6011C108.117 94.203 105.064 89.9105 103.729 87.9576C103.62 88.0967 103.5 88.2513 103.369 88.4234C99.5081 93.5202 93.7779 95.5651 88.2279 94.7574C82.7016 93.953 77.4674 90.3479 74.3792 84.4097C73.0746 81.9001 72.6004 78.3932 72.7162 75.0279C72.8329 71.634 73.5609 68.0394 74.9671 65.2827L76.0501 63.1597L74.0834 62.273C65.7854 58.5318 60.6478 50.2277 60.6478 40.8208C60.6478 34.657 63.0045 29.7209 67.3011 26.8648C71.552 24.0392 77.3178 23.5051 83.6673 25.2808L83.8783 25.3394V21.022C83.8783 19.0339 84.0026 16.9056 84.2035 15.066C84.3967 13.297 84.6822 11.5808 85.0755 10.5435C85.8242 8.56762 87.1471 6.55559 88.6224 4.89603C90.0784 3.25831 91.854 1.77166 93.6146 1.04349C94.4085 0.715182 95.583 0.474067 96.7191 0.309114C97.9075 0.13657 99.2528 0.0204555 100.485 0.0014968C105.628 -0.0768858 110.763 2.93108 114.727 7.17044C118.727 11.4485 121.812 17.2574 122.742 23.354C122.93 24.5929 123.113 25.4012 123.273 25.9058C128.809 24.5233 133.35 24.2444 137.361 25.649C141.605 27.1352 144.882 30.3707 148.066 35.1646L148.495 35.8267C152.71 42.4898 154.544 50.2805 153.055 56.604L152.895 57.231C152.093 60.1482 150.335 63.158 148.232 65.6646C146.138 68.1599 143.542 70.3478 140.916 71.4449C139.09 72.2081 139.205 72.2866 139.158 72.4097C139.074 72.6245 138.979 73.0606 138.929 74.0298C138.88 74.9756 138.878 76.2304 138.878 78.0005C138.878 83.618 137.801 88.2684 135.41 91.6861C132.968 95.1784 129.321 97.1463 124.741 97.6626L123.538 97.7974L127.525 103.689L128.29 104.831C136.223 116.77 144.87 133.056 149.314 144.507L150.644 147.934L151.013 146.112C152.103 140.73 153.508 136.292 155.159 133.095C155.984 131.497 156.91 130.132 157.952 129.112C158.997 128.09 160.255 127.325 161.711 127.155C163.248 126.975 164.688 127.266 165.942 128.028C167.171 128.775 168.098 129.896 168.783 131.187C170.129 133.726 170.701 137.226 170.696 141.095C170.685 148.893 168.327 159.072 163.686 168.486L159.979 176.003L161.425 182.143L161.531 182.606C162.591 187.486 162.898 195.066 162.618 202.782C162.327 210.778 161.394 219.175 159.887 225.234C159.319 227.515 158.804 229.634 158.432 231.21C158.379 231.435 158.331 231.648 158.285 231.848C159.217 231.902 160.402 231.938 161.7 231.938H165.629L166.748 212.076C169.581 161.812 176.495 129.374 190.64 100.765C196.564 88.7821 202.46 79.9692 210.37 71.313C211.493 70.0846 212.525 68.9065 213.349 67.9292C210.73 67.8446 207.696 66.8217 205.005 65.4185C202.181 63.9456 199.437 61.9022 197.719 59.649C195.684 56.9807 194.318 53.1799 193.642 49.2515C192.962 45.2991 192.944 41.0022 193.786 37.2368C194.554 33.8071 196.179 30.4622 198.253 27.6997C200.316 24.9531 202.924 22.6491 205.75 21.4683C208.582 20.285 212.669 19.8604 216.585 19.9888C220.518 20.1177 224.651 20.8171 227.604 22.1568L228.467 22.5406C229.08 22.8081 229.649 23.044 230.141 23.2378C230.461 22.2139 230.871 20.8446 231.295 19.3667C232.957 13.5725 236.026 9.21695 240.163 6.96439ZM173.546 249.183C174.004 249.013 176.853 247.83 179.878 246.555L185.378 244.236L187.72 246.837C189.008 248.268 191.258 251.913 192.719 254.938C194.924 259.501 195.373 261.801 195.358 268.438C195.342 275.268 194.923 277.235 192.492 281.885L189.645 287.331L192.012 289.092C193.313 290.06 195.536 291.74 196.951 292.825C200.672 295.677 205.534 305.45 206.843 312.706C208.116 319.767 207.139 327.294 204.268 333.76C201.452 336.835 187.655 341.444 184.035 341.41L185.898 335.879C188.302 328.743 188.528 315.97 186.393 307.946C185.589 304.925 183.533 299.699 181.825 296.333L178.719 290.214L180.298 284.894C182.102 278.822 182.349 269.172 180.84 263.74C180.275 261.706 178.215 257.668 176.263 254.767C174.311 251.866 173.088 249.353 173.546 249.183ZM124.378 268.013C124.378 263.847 125.005 258.279 125.771 255.64C127.046 251.25 127.387 250.885 129.771 251.348C131.205 251.626 135.419 252.151 139.136 252.513L145.894 253.173L145.241 268.32C144.599 283.209 144.641 283.66 147.733 294.734C151.373 307.772 151.88 318.867 149.296 328.95C147.812 334.744 147.757 335.2 149.974 341.215C147.757 341.061 141.667 340.22 136.415 339.344L128.86 338.083C128.689 337.15 127.301 334.857 125.628 332.775C122.484 328.861 122.379 328.43 122.416 319.583C122.457 309.687 123.302 306.311 128.531 295.144L131.947 287.85L128.162 281.719C124.656 276.039 124.378 275.032 124.378 268.013ZM156.841 253.655C160.459 253.276 162.918 253.108 164.447 253.127C164.789 253.132 165.055 253.147 165.257 253.165C165.302 253.255 165.348 253.344 165.395 253.43C165.611 253.828 165.902 254.298 166.233 254.798C166.9 255.805 167.805 257.046 168.789 258.289C174.095 264.986 175.122 274.253 171.191 285.501L169.249 291.057L173.366 298.679C180.249 311.423 181.371 323.879 176.895 335.574L174.954 340.644C174.528 340.777 173.941 340.875 173.083 340.905C171.737 340.951 169.901 340.827 167.247 340.543L167.232 340.541L167.216 340.54L158.565 339.751L156.791 334.348L158.379 327.569L158.597 326.592C160.751 316.442 159.835 304.568 156.098 293.308C154.798 289.391 154.152 287.165 153.82 284.318C153.48 281.407 153.463 277.807 153.535 271.147C153.586 266.54 153.633 263.091 153.748 260.483C153.865 257.842 154.047 256.218 154.316 255.191C154.565 254.239 154.812 254.092 154.888 254.047L154.892 254.044C155.133 253.9 155.574 253.788 156.841 253.655ZM32.9906 212.238C31.4595 213.424 30.106 213.938 29.3167 213.938C28.6076 213.938 27.5205 213.395 26.5091 211.984C25.5395 210.631 24.9154 208.826 24.9486 207.092C25.0009 204.422 25.2863 203.12 25.8021 202.265C26.2877 201.46 27.1596 200.756 29.2464 199.806C30.998 199.009 33.0211 198.646 34.7142 198.703C35.5579 198.731 36.2492 198.861 36.7484 199.044C37.2607 199.232 37.4254 199.42 37.4535 199.46C37.509 199.543 37.6624 199.885 37.7601 200.611C37.8512 201.288 37.8718 202.127 37.8099 203.042C37.6914 204.792 37.291 206.558 36.7357 207.75L36.6224 207.98C35.8089 209.553 34.4625 211.097 32.9906 212.238ZM49.3421 187.244C49.9507 187.101 50.8327 187.041 52.0423 187.131C54.1968 187.294 55.5905 188.042 56.5677 189.314C57.6162 190.679 58.3695 192.888 58.6537 196.313L58.7142 197.104C58.8345 198.832 58.8074 199.751 58.6664 200.362C58.549 200.87 58.3455 201.222 57.6419 201.859C56.8312 202.592 55.4492 203.08 53.8919 203.094C52.3298 203.108 50.9807 202.643 50.2142 201.95C50.2076 201.943 50.1681 201.901 50.1029 201.803C50.028 201.691 49.9379 201.532 49.8373 201.319C49.6342 200.89 49.4249 200.318 49.224 199.622C48.8226 198.23 48.4974 196.491 48.2962 194.715C48.095 192.939 48.0258 191.198 48.1097 189.805C48.1518 189.107 48.2297 188.543 48.3294 188.127C48.4053 187.812 48.4722 187.669 48.4893 187.632L48.4906 187.629C48.5617 187.552 48.7744 187.376 49.3421 187.244ZM12.7484 180.542C13.9088 179.249 15.6003 178.651 17.6937 178.874C19.972 179.115 22.6805 180.346 25.2816 182.715C26.8666 184.159 27.0442 185.168 26.891 185.855C26.7074 186.678 25.8977 187.864 23.7669 189.292L23.3236 189.58C21.5562 190.696 20.4804 191.232 19.6185 191.47C18.8479 191.683 18.1455 191.687 17.058 191.457C13.965 190.802 12.063 189.096 11.2953 187.23C10.5389 185.391 10.7454 183.069 12.5238 180.809L12.7484 180.542ZM37.2162 164.275C38.9206 162.571 39.9529 162.116 40.6527 162.081C41.2641 162.05 42.1369 162.32 43.5775 163.589L43.8734 163.857C44.8827 164.793 45.2674 165.345 45.4935 166.011C45.7561 166.785 45.8701 167.901 45.8636 170.133C45.8593 171.523 45.7769 172.897 45.6507 173.975C45.5874 174.517 45.5158 174.954 45.4466 175.268C45.4166 175.404 45.3905 175.49 45.3763 175.538C45.2026 175.757 44.8687 176.069 44.3207 176.421C43.7132 176.812 42.9494 177.186 42.1087 177.498C40.3684 178.143 38.6179 178.405 37.5179 178.239C36.7255 178.119 36.3047 177.967 36.058 177.82C35.8681 177.706 35.7042 177.551 35.5414 177.19C35.3531 176.772 35.1787 176.098 35.0619 174.98C34.9753 174.151 34.9259 173.145 34.9046 171.914L34.8929 170.605C34.887 168.634 35.0149 167.616 35.3041 166.845C35.5782 166.115 36.0672 165.424 37.2162 164.275ZM239.83 82.2681C237.126 87.035 233.272 89.9379 229.69 89.938C227.307 89.938 226.279 89.3485 225.654 88.4136C224.868 87.2382 224.378 85.0488 224.378 81.0015C224.378 77.5541 225.175 73.645 226.345 70.4976C226.929 68.9259 227.581 67.6142 228.222 66.6743C228.914 65.6588 229.393 65.3736 229.516 65.3345L229.517 65.3335C230.286 65.0889 231.117 64.586 231.811 64.0855C232.538 63.5611 233.289 62.9125 233.893 62.2447L233.892 62.2437C234.069 62.0476 234.22 61.8873 234.35 61.7544L234.367 61.7691C234.412 61.809 234.461 61.8517 234.513 61.899C235.143 62.4696 236.067 63.0548 236.975 63.5474C237.909 64.054 238.965 64.5388 239.935 64.8765C240.575 65.0997 241.181 65.4647 241.641 65.8736C242.129 66.3074 242.302 66.6513 242.333 66.7691L242.45 67.2339C243.58 72.0629 242.409 77.7238 239.83 82.2681ZM127.592 84.6411C126.786 86.0859 125.407 86.938 122.871 86.938C119.056 86.9379 114.581 84.1334 111.823 79.3999L111.498 78.8306C110.793 77.5574 110.437 76.6448 110.248 75.5826C110.02 74.2961 110.015 72.6722 110.191 69.8257L110.238 69.1636C110.359 67.6229 110.569 66.1207 110.817 64.898C110.959 64.1973 111.107 63.6202 111.246 63.1949C111.34 62.9106 111.406 62.7652 111.431 62.7118C111.438 62.6956 111.441 62.6872 111.441 62.6872C111.615 62.4784 111.744 62.3256 111.855 62.2056C112.05 62.298 112.357 62.4642 112.824 62.7622C113.562 63.2341 114.525 63.914 115.869 64.8697C118.501 66.7399 122.504 69.1094 124.851 70.1685L124.852 70.1695C126.854 71.0718 127.27 71.3899 127.512 71.7622C127.637 71.9552 127.781 72.2759 127.928 72.938C128.078 73.612 128.202 74.501 128.363 75.7818C128.91 80.1596 128.517 82.9831 127.592 84.6411ZM94.221 62.5327C94.7397 62.341 95.1878 62.1933 95.5384 62.0952C95.8217 62.016 95.9704 61.9896 96.0168 61.9814C96.0356 61.9781 96.0375 61.9777 96.0248 61.9781C96.4195 61.9679 96.9651 62.1326 97.5492 63.2105C98.1591 64.3363 98.6231 66.1922 98.7084 68.7827C98.9198 75.2135 96.7312 80.0305 93.9955 82.3443C92.6486 83.4833 91.2107 83.9946 89.8177 83.9322C88.4299 83.8699 86.8425 83.2265 85.2162 81.6001C82.8284 79.2124 82.1882 75.9128 83.1556 72.6089C84.1297 69.2825 86.7424 66.0045 90.7709 64.023C91.9465 63.4447 93.1853 62.9156 94.221 62.5327ZM264.525 45.4126C264.807 45.2982 265.176 45.2366 266.124 45.4497C269.217 46.1437 272.253 49.5277 274.118 54.7837C275.942 59.9201 276.402 66.2419 274.864 71.7808C273.977 74.9722 272.409 76.9069 270.669 77.937C268.924 78.9704 266.787 79.2248 264.511 78.6441C259.924 77.4732 254.904 72.8836 252.834 65.189C252.284 63.144 252.105 62.1146 252.14 61.2974C252.172 60.5492 252.392 59.827 253.062 58.4156C253.532 57.4253 253.961 56.4032 254.278 55.5435C254.436 55.1152 254.574 54.7057 254.675 54.3482C254.726 54.1669 254.789 53.9148 254.832 53.6431C254.892 53.5684 254.981 53.4653 255.107 53.3384C255.493 52.9489 256.067 52.4781 256.72 52.0523C258.391 50.9648 260.956 48.7617 262.521 47.0952C263.58 45.9672 264.137 45.5698 264.525 45.4126ZM141.854 56.5757C140.491 59.884 137.852 61.9378 134.469 61.938C130.266 61.938 124.676 59.2344 120.739 55.9351C118.778 54.2924 117.464 52.694 116.928 51.482C116.665 50.8864 116.665 50.5561 116.689 50.4302L116.69 50.4255C116.698 50.3767 116.718 50.2706 116.982 50.107C117.311 49.9037 117.556 49.642 117.695 49.4839C117.858 49.2974 118.018 49.0876 118.165 48.8775C118.462 48.4554 118.785 47.9301 119.114 47.3531C119.774 46.1932 120.517 44.7129 121.195 43.1802C122.688 39.8026 124.389 37.7207 126.104 36.6743L126.672 36.3443C129.487 34.7925 131.871 34.727 133.981 35.7281C136.377 36.8654 138.831 39.5674 141.109 44.3042C143.223 48.702 143.23 53.2347 141.854 56.5757ZM209.493 31.4478C213.508 29.2165 219.1 29.385 225.052 32.4947C227.337 33.6881 228.453 34.4178 229.199 35.2124C229.907 35.9675 230.404 36.9149 231.103 38.8687C231.863 40.9922 232.128 41.9909 232.15 42.8579C232.168 43.5887 232.015 44.3499 231.539 45.7964L231.316 46.4605C230.972 47.4593 230.433 48.5485 229.846 49.4761C229.225 50.4577 228.687 51.0389 228.42 51.2251C227.083 52.1585 225.021 53.9876 223.754 55.3501C222.155 57.0698 219.233 57.9599 215.835 57.6558C212.584 57.3647 209.294 56.0019 207.036 53.772L206.822 53.5533C205.696 52.3784 205.166 51.6064 204.82 50.6333C204.49 49.7057 204.289 48.4889 204.132 46.439L204.068 45.5074C203.593 38.0432 205.468 33.891 209.11 31.6714L209.493 31.4478ZM72.6761 35.7232C73.5692 35.2024 75.4076 34.8769 77.7914 35.0493C80.0961 35.2161 82.5327 35.8229 84.4134 36.7691C86.7383 37.9387 89.2482 40.4282 91.0404 43.1499C91.9247 44.4929 92.5801 45.8118 92.9447 46.9497C93.3266 48.1419 93.309 48.883 93.1966 49.23C92.5763 51.1435 90.1497 52.8631 86.474 53.4576C82.9068 54.0344 78.9529 53.3834 76.2445 51.4546L76.0267 51.2925C73.7904 49.5667 72.0528 46.1441 71.4251 42.6372C71.1077 40.8632 71.1066 39.2274 71.3871 37.9605C71.6719 36.6742 72.1828 36.0107 72.6761 35.7232ZM97.7933 10.9829C99.0497 10.3367 100.237 10.2134 101.521 10.5738C102.879 10.9551 104.477 11.9183 106.378 13.7115C113.219 20.1638 114.971 31.1503 110.575 38.6509C109.972 39.6793 109.538 40.3894 109.176 40.897C108.809 41.4116 108.615 41.5709 108.541 41.6187L108.539 41.6207C108.529 41.6289 108.505 41.6494 108.348 41.6499C108.093 41.6508 107.701 41.5956 106.958 41.44C106.469 41.3367 105.673 40.9757 104.63 40.2593C103.621 39.5665 102.513 38.6327 101.418 37.5523C99.2032 35.3663 97.2225 32.7571 96.2533 30.6138C95.3604 28.6393 94.7096 25.5318 94.475 22.3501C94.2378 19.1353 94.4546 16.2391 95.0257 14.6343L95.1312 14.3618C95.3994 13.7159 95.8229 13.004 96.3226 12.3677C96.9152 11.6132 97.4686 11.1499 97.7933 10.9829ZM114.638 287.466C114.736 287.219 114.878 286.805 114.878 286.324C114.878 285.768 114.718 285.22 114.577 284.818C114.419 284.37 114.206 283.89 113.963 283.412C113.539 282.574 112.982 281.654 112.366 280.79L112.098 280.422C109.141 276.471 107.39 272.85 106.628 269.053C105.865 265.251 106.064 261.12 107.234 256.102C108.097 252.397 109.464 248.192 110.2 246.771L110.201 246.77L110.606 245.985L111.718 246.921C112.621 247.681 113.591 248.38 114.446 248.902C114.871 249.162 115.299 249.396 115.697 249.573C116.017 249.716 116.578 249.945 117.179 249.953C117.771 249.96 118.071 250.022 118.204 250.064C118.256 250.284 118.29 250.768 118.16 251.711C118.029 252.652 117.763 253.878 117.351 255.485C116.031 260.637 115.608 266.171 116.007 271.232C116.404 276.263 117.628 280.997 119.747 284.446L122.124 288.315L119.857 293.042C116.081 300.908 113.97 309.414 113.575 317.119C113.279 322.88 113.937 328.341 115.699 332.771C115.559 332.727 115.414 332.684 115.268 332.636C113.242 331.982 110.742 331.041 107.875 329.867C104.272 328.391 102.456 327.559 101.25 326.672C100.234 325.924 99.5986 325.094 98.6761 323.389C98.5741 322.44 98.5122 321.41 98.4857 320.272L98.471 318.936C98.4686 315.73 98.5851 313.807 99.0062 311.988C99.4283 310.164 100.18 308.339 101.614 305.368C103.433 301.598 106.847 296.703 109.434 294.116C110.824 292.726 112.1 291.273 113.042 290.036C113.511 289.421 113.923 288.825 114.228 288.295C114.38 288.032 114.525 287.75 114.638 287.466ZM242.105 35.73C241.269 34.2009 240.878 32.0658 240.878 28.4556C240.878 22.8642 242.055 19.2758 244.086 17.0318L244.265 16.854C245.216 16.0013 247.024 15.7013 249.432 16.5835C251.904 17.4894 254.369 19.4703 255.716 22.065C256.711 23.9822 257.251 26.9288 257.185 30.1128C257.119 33.2814 256.459 36.3908 255.329 38.5923C254.162 40.8703 253.129 42.3585 252.382 43.1079C252.241 42.983 252.109 42.8733 251.999 42.7876C251.615 42.4871 251.141 42.1599 250.622 41.8267C249.582 41.1577 248.264 40.4045 246.91 39.7183C244.279 38.3848 242.91 37.2028 242.105 35.73Z" fill="#3B468B"/>
</svg>
