<svg width="287" height="351" viewBox="0 0 287 351" fill="none" xmlns="http://www.w3.org/2000/svg">
<path fill-rule="evenodd" clip-rule="evenodd" d="M240.161 6.96439C244.352 4.68289 249.301 4.74339 254.25 7.13919C263.663 11.6953 268.966 22.1094 267.5 32.8052C267.37 33.7548 267.288 34.4372 267.255 34.9419C271.578 35.0313 275.448 37.3393 278.509 40.9966C281.627 44.722 284.015 49.9543 285.395 56.1558C287.228 64.3962 286.512 72.2325 283.695 78.2964C280.866 84.3851 275.867 88.7454 269.28 89.6284C266.667 89.9789 263.087 89.1914 259.957 88.0367C256.825 86.8809 253.588 85.152 251.81 83.188C251.667 83.0303 251.536 82.8882 251.416 82.7613C251.258 83.1431 251.072 83.6253 250.853 84.2329C249.31 88.4992 245.918 92.6104 242.086 95.646C238.285 98.6571 233.7 100.884 229.592 100.916C221.921 100.975 216.018 95.1087 213.825 86.6743L213.624 85.8511L213.236 84.1402L210.642 87.6372C205.078 95.1388 196.415 112.085 192.291 123.612C188.907 133.073 184.69 149.499 182.638 161.157L182.446 162.27C181.507 167.84 180.348 176.373 179.484 183.585C179.252 185.519 179.042 187.352 178.864 189.003C180.888 185.6 184.002 181.755 187.132 178.52C188.818 176.779 190.54 175.18 192.143 173.899C193.71 172.646 195.29 171.592 196.675 171.065C202.362 168.903 207.687 169.752 211.12 173.149C214.53 176.521 215.586 181.923 213.808 187.858C211.885 194.277 207.213 199.585 198.079 206.537C186.274 215.524 180.025 223.884 178.359 232.018C178.261 232.497 178.196 232.834 178.156 233.082C178.164 233.084 178.172 233.086 178.181 233.088C178.714 233.214 179.473 233.332 180.635 233.506C183.395 233.92 187.2 235.29 189.254 236.675C191.824 238.407 194.626 241.671 196.983 245.195C199.36 248.75 201.452 252.824 202.479 256.353L202.673 257.054C203.61 260.622 204.043 265.047 204.021 269.281C203.997 273.777 203.459 278.293 202.318 281.495L201.16 284.74L204.429 288.288C214.787 299.525 218.569 317.117 213.94 332.162L213.938 332.169L213.92 332.225L213.886 332.338L213.838 332.446C212.492 335.484 210.4 338.627 208.074 341.245C205.777 343.829 203.086 346.089 200.472 347.133C199.877 347.371 199.252 347.596 198.6 347.807C191.139 350.227 179.529 351.155 166.694 350.842C153.801 350.528 139.458 348.955 126.425 346.246C124.133 345.769 121.879 345.257 119.679 344.71C117.934 344.275 116.222 343.819 114.551 343.341C110.475 342.175 106.194 340.602 102.407 338.965C99.3194 337.631 96.5165 336.237 94.3998 334.96C93.3458 334.325 92.4156 333.69 91.6937 333.081C91.0647 332.55 90.2633 331.773 89.9603 330.8C89.8352 330.399 89.7432 329.908 89.6691 329.513L89.6644 329.488L89.6478 329.401V329.399C88.7545 327.435 88.5634 326.218 88.4642 323.958C88.3989 322.468 88.3763 320.807 88.3763 318.917C88.3763 314.047 88.4225 311.109 88.8949 308.614C89.3811 306.045 90.3049 304.015 91.8177 300.942C93.6602 297.199 97.0334 292.016 99.3988 289.328L102.511 285.791L99.9251 281.227C98.3681 278.479 97.3901 276.656 96.8968 274.238C96.4238 271.919 96.4112 269.113 96.4417 264.424C96.4784 258.78 96.9609 254.249 98.2025 249.996C99.4466 245.733 101.422 241.855 104.322 237.478L107.991 231.938H115.952C117.614 231.938 118.819 231.931 119.727 231.884C120.658 231.837 121.094 231.753 121.302 231.681C121.349 231.574 121.427 231.344 121.56 230.816L121.611 230.556C121.662 230.231 121.714 229.705 121.75 228.951C121.797 227.988 121.813 226.773 121.801 225.361C121.777 222.539 121.64 218.996 121.418 215.238C120.973 207.701 120.193 199.419 119.329 194.415L119.013 192.649C117.345 183.691 114.471 172.896 112.285 167.404C112.132 167.021 111.994 166.697 111.869 166.426C111.588 166.796 111.229 167.325 110.778 168.061C109.902 169.49 108.811 171.478 107.402 174.135C105.544 177.638 103.801 180.523 102.131 182.782C100.473 185.024 98.8094 186.756 97.0775 187.839C95.2941 188.955 93.3878 189.409 91.4193 188.962C89.5239 188.533 87.8514 187.331 86.3421 185.723C84.0751 183.308 83.1784 179.642 83.2484 175.977C83.3195 172.257 84.3833 168.206 86.431 164.71L86.7816 164.128C88.5663 161.238 90.8563 158.628 93.2933 156.597C95.8656 154.454 98.747 152.837 101.498 152.344C103.072 152.062 104.084 151.852 104.733 151.632C104.658 151.484 104.559 151.302 104.428 151.085C103.895 150.2 103.027 149.013 101.763 147.332C97.661 141.875 93.0612 137.496 88.4925 134.497C83.9047 131.484 79.4671 129.938 75.6546 129.938C71.8411 129.938 67.6528 132.088 63.6302 136.395C59.7553 140.544 56.2031 146.53 53.5209 153.883L53.264 154.599C52.6581 156.318 52.5636 156.898 52.6166 157.34C52.6711 157.795 52.9121 158.367 53.9164 159.954C54.8695 161.46 55.5091 162.893 55.8734 164.708C56.2254 166.461 56.3052 168.5 56.2582 171.181L56.1664 176.431L58.1576 177.089L58.5462 177.227C62.5397 178.74 65.6887 182.964 67.5492 187.45C69.4973 192.147 70.322 197.803 68.9339 202.437C66.3597 211.027 57.0127 215.861 48.8734 212.46L46.847 211.613L45.4027 213.805C42.3157 218.49 38.3678 221.837 34.2318 223.381C30.0564 224.941 25.65 224.655 22.0414 221.96C19.2166 219.852 17.1981 217.86 15.974 215.313C14.7531 212.772 14.4372 209.917 14.513 206.322L14.5296 205.36C14.5519 203.568 14.5116 202.51 14.4173 201.885C13.4034 201.774 12.3481 201.413 11.3753 200.975C10.1773 200.435 8.92603 199.696 7.74351 198.861C5.43756 197.232 3.10262 195.03 1.96519 192.893C-1.89974 185.628 0.0664449 177.549 6.66929 171.994L7.24644 171.513C8.56933 170.43 9.75555 169.618 11.4232 169.24C13.1537 168.847 15.3048 168.955 18.5238 169.161L23.9173 169.506L24.7191 166.071L24.9066 165.327C26.9783 157.691 33.1196 151.938 40.3187 151.938C41.3458 151.938 42.0564 151.921 42.5785 151.87C42.8325 151.844 43.0072 151.814 43.1263 151.785C43.173 151.773 43.2063 151.759 43.2308 151.751C43.2816 151.642 43.3892 151.363 43.5384 150.729C44.1481 148.14 46.0631 144.062 48.2523 140.141C50.4655 136.177 53.1194 132.09 55.3646 129.473C60.971 122.938 67.5211 119.764 75.6205 119.808C86.8409 119.87 95.4948 124.574 105.627 135.518C122.185 153.403 131.876 186.073 131.876 222.435V231.949L147.675 231.482L149.122 226.391C149.612 224.666 149.989 222.826 150.201 221.245C150.425 219.573 150.426 218.463 150.338 218.05L150.296 217.904C150.232 217.71 150.097 217.373 149.854 216.876C149.55 216.254 149.132 215.494 148.624 214.644C147.611 212.946 146.282 210.961 144.894 209.115C140.193 202.866 136.484 196.453 134.302 191.108C133.214 188.444 132.472 185.963 132.207 183.855C131.956 181.857 132.069 179.689 133.33 178.168L133.545 177.918C134.638 176.691 136.025 175.8 137.737 175.741C139.501 175.68 141.125 176.526 142.577 177.747C145.427 180.143 148.591 184.822 152.31 191.618C151.963 189.461 151.458 186.978 150.812 184.24C149.491 178.647 147.617 172.133 145.422 165.421C141.025 151.973 135.393 137.888 130.451 128.956C123.83 116.989 118.491 108.529 111.3 98.6011C108.115 94.203 105.062 89.9105 103.727 87.9576C103.618 88.0967 103.498 88.2513 103.368 88.4234C99.5062 93.5202 93.7759 95.5651 88.2259 94.7574C82.6996 93.953 77.4654 90.3479 74.3773 84.4097C73.0727 81.9001 72.5985 78.3932 72.7142 75.0279C72.8309 71.634 73.559 68.0394 74.9652 65.2827L76.0482 63.1597L74.0814 62.273C65.7835 58.5318 60.6459 50.2277 60.6459 40.8208C60.6459 34.657 63.0025 29.7209 67.2992 26.8648C71.55 24.0392 77.3159 23.5051 83.6654 25.2808L83.8763 25.3394V21.022C83.8763 19.0339 84.0006 16.9056 84.2015 15.066C84.3947 13.297 84.6802 11.5808 85.0736 10.5435C85.8223 8.56762 87.1452 6.55559 88.6205 4.89603C90.0764 3.25831 91.8521 1.77166 93.6126 1.04349C94.4066 0.715182 95.581 0.474067 96.7171 0.309114C97.9056 0.13657 99.2509 0.0204555 100.483 0.0014968C105.626 -0.0768858 110.761 2.93108 114.725 7.17044C118.725 11.4485 121.81 17.2574 122.74 23.354C122.928 24.5929 123.111 25.4012 123.271 25.9058C128.807 24.5233 133.348 24.2444 137.359 25.649C141.603 27.1352 144.88 30.3707 148.064 35.1646L148.493 35.8267C152.708 42.4898 154.542 50.2805 153.053 56.604L152.893 57.231C152.091 60.1482 150.333 63.158 148.23 65.6646C146.136 68.1599 143.54 70.3478 140.914 71.4449C139.088 72.2081 139.203 72.2866 139.156 72.4097C139.072 72.6245 138.977 73.0606 138.927 74.0298C138.878 74.9756 138.876 76.2304 138.876 78.0005C138.876 83.618 137.799 88.2684 135.409 91.6861C132.966 95.1784 129.319 97.1463 124.739 97.6626L123.536 97.7974L127.523 103.689L128.288 104.831C136.221 116.77 144.868 133.056 149.312 144.507L150.642 147.934L151.011 146.112C152.101 140.73 153.506 136.292 155.157 133.095C155.982 131.497 156.908 130.132 157.951 129.112C158.995 128.09 160.253 127.325 161.709 127.155C163.246 126.975 164.686 127.266 165.94 128.028C167.169 128.775 168.096 129.896 168.781 131.187C170.127 133.726 170.699 137.226 170.694 141.095C170.683 148.893 168.325 159.072 163.684 168.486L159.977 176.003L161.423 182.143L161.529 182.606C162.589 187.486 162.896 195.066 162.616 202.782C162.325 210.778 161.392 219.175 159.885 225.234C159.318 227.515 158.803 229.634 158.43 231.21C158.377 231.435 158.329 231.648 158.283 231.848C159.215 231.902 160.4 231.938 161.698 231.938H165.627L166.746 212.076C169.579 161.812 176.493 129.374 190.638 100.765C196.562 88.7821 202.458 79.9692 210.368 71.313C211.491 70.0846 212.523 68.9065 213.347 67.9292C210.728 67.8446 207.694 66.8217 205.003 65.4185C202.179 63.9456 199.435 61.9022 197.717 59.649C195.682 56.9807 194.316 53.1799 193.64 49.2515C192.96 45.2991 192.942 41.0022 193.785 37.2368C194.552 33.8071 196.177 30.4622 198.251 27.6997C200.314 24.9531 202.922 22.6491 205.748 21.4683C208.58 20.285 212.667 19.8604 216.583 19.9888C220.516 20.1177 224.649 20.8171 227.602 22.1568L228.465 22.5406C229.078 22.8081 229.647 23.044 230.139 23.2378C230.459 22.2139 230.869 20.8446 231.293 19.3667C232.955 13.5725 236.024 9.21695 240.161 6.96439ZM173.544 249.183C174.002 249.013 176.851 247.83 179.876 246.555L185.376 244.236L187.718 246.837C189.006 248.268 191.256 251.913 192.717 254.938C194.922 259.501 195.371 261.801 195.356 268.438C195.34 275.268 194.921 277.235 192.49 281.885L189.643 287.331L192.01 289.092C193.311 290.06 195.534 291.74 196.949 292.825C200.67 295.677 205.532 305.45 206.841 312.706C208.114 319.767 207.137 327.294 204.266 333.76C201.45 336.835 187.653 341.444 184.033 341.41L185.896 335.879C188.3 328.743 188.526 315.97 186.391 307.946C185.587 304.925 183.531 299.699 181.823 296.333L178.717 290.214L180.296 284.894C182.1 278.822 182.347 269.172 180.838 263.74C180.273 261.706 178.213 257.668 176.261 254.767C174.309 251.866 173.086 249.353 173.544 249.183ZM124.376 268.013C124.376 263.847 125.003 258.279 125.769 255.64C127.044 251.25 127.385 250.885 129.769 251.348C131.203 251.626 135.417 252.151 139.134 252.513L145.892 253.173L145.239 268.32C144.597 283.209 144.639 283.66 147.731 294.734C151.371 307.772 151.878 318.867 149.294 328.95C147.81 334.744 147.755 335.2 149.972 341.215C147.755 341.061 141.665 340.22 136.413 339.344L128.859 338.083C128.687 337.15 127.299 334.857 125.626 332.775C122.482 328.861 122.377 328.43 122.414 319.583C122.455 309.687 123.3 306.311 128.529 295.144L131.945 287.85L128.16 281.719C124.654 276.039 124.376 275.032 124.376 268.013ZM156.839 253.655C160.457 253.276 162.916 253.108 164.445 253.127C164.787 253.132 165.053 253.147 165.255 253.165C165.3 253.255 165.346 253.344 165.393 253.43C165.609 253.828 165.9 254.298 166.231 254.798C166.898 255.805 167.803 257.046 168.787 258.289C174.093 264.986 175.12 274.253 171.189 285.501L169.247 291.057L173.364 298.679C180.248 311.423 181.369 323.879 176.893 335.574L174.952 340.644C174.526 340.777 173.939 340.875 173.081 340.905C171.735 340.951 169.899 340.827 167.245 340.543L167.23 340.541L167.214 340.54L158.563 339.751L156.789 334.348L158.377 327.569L158.595 326.592C160.749 316.442 159.833 304.568 156.096 293.308C154.796 289.391 154.15 287.165 153.818 284.318C153.478 281.407 153.461 277.807 153.534 271.147C153.584 266.54 153.632 263.091 153.746 260.483C153.863 257.842 154.045 256.218 154.314 255.191C154.563 254.239 154.81 254.092 154.886 254.047L154.89 254.044C155.131 253.9 155.572 253.788 156.839 253.655ZM32.9886 212.238C31.4575 213.424 30.104 213.938 29.3148 213.938C28.6057 213.938 27.5186 213.395 26.5072 211.984C25.5375 210.631 24.9135 208.826 24.9466 207.092C24.9989 204.422 25.2844 203.12 25.8001 202.265C26.2857 201.46 27.1576 200.756 29.2445 199.806C30.996 199.009 33.0191 198.646 34.7123 198.703C35.556 198.731 36.2473 198.861 36.7464 199.044C37.2588 199.232 37.4234 199.42 37.4515 199.46C37.507 199.543 37.6604 199.885 37.7582 200.611C37.8492 201.288 37.8699 202.127 37.808 203.042C37.6894 204.792 37.289 206.558 36.7337 207.75L36.6205 207.98C35.807 209.553 34.4605 211.097 32.9886 212.238ZM49.3402 187.244C49.9488 187.101 50.8308 187.041 52.0404 187.131C54.1948 187.294 55.5886 188.042 56.5658 189.314C57.6143 190.679 58.3675 192.888 58.6517 196.313L58.7123 197.104C58.8325 198.832 58.8054 199.751 58.6644 200.362C58.547 200.87 58.3435 201.222 57.64 201.859C56.8293 202.592 55.4473 203.08 53.89 203.094C52.3279 203.108 50.9787 202.643 50.2123 201.95C50.2056 201.943 50.1662 201.901 50.1009 201.803C50.026 201.691 49.936 201.532 49.8353 201.319C49.6322 200.89 49.423 200.318 49.222 199.622C48.8207 198.23 48.4954 196.491 48.2943 194.715C48.093 192.939 48.0238 191.198 48.1078 189.805C48.1499 189.107 48.2278 188.543 48.3275 188.127C48.4033 187.812 48.4702 187.669 48.4873 187.632L48.4886 187.629C48.5597 187.552 48.7724 187.376 49.3402 187.244ZM12.7464 180.542C13.9068 179.249 15.5984 178.651 17.6917 178.874C19.97 179.115 22.6785 180.346 25.2796 182.715C26.8646 184.159 27.0422 185.168 26.889 185.855C26.7055 186.678 25.8958 187.864 23.765 189.292L23.3216 189.58C21.5543 190.696 20.4784 191.232 19.6166 191.47C18.8459 191.683 18.1436 191.687 17.056 191.457C13.9631 190.802 12.061 189.096 11.2933 187.23C10.5369 185.391 10.7435 183.069 12.5218 180.809L12.7464 180.542ZM37.2142 164.275C38.9187 162.571 39.951 162.116 40.6507 162.081C41.2621 162.05 42.1349 162.32 43.5755 163.589L43.8714 163.857C44.8807 164.793 45.2654 165.345 45.4916 166.011C45.7541 166.785 45.8682 167.901 45.8617 170.133C45.8574 171.523 45.7749 172.897 45.6488 173.975C45.5854 174.517 45.5138 174.954 45.4447 175.268C45.4146 175.404 45.3886 175.49 45.3744 175.538C45.2007 175.757 44.8668 176.069 44.3187 176.421C43.7113 176.812 42.9474 177.186 42.1068 177.498C40.3664 178.143 38.6159 178.405 37.516 178.239C36.7235 178.119 36.3028 177.967 36.056 177.82C35.8661 177.706 35.7022 177.551 35.5394 177.19C35.3512 176.772 35.1767 176.098 35.0599 174.98C34.9733 174.151 34.924 173.145 34.9027 171.914L34.891 170.605C34.8851 168.634 35.0129 167.616 35.3021 166.845C35.5762 166.115 36.0653 165.424 37.2142 164.275ZM239.828 82.2681C237.124 87.035 233.27 89.9379 229.688 89.938C227.305 89.938 226.277 89.3485 225.652 88.4136C224.866 87.2382 224.376 85.0488 224.376 81.0015C224.376 77.5541 225.173 73.645 226.343 70.4976C226.927 68.9259 227.579 67.6142 228.22 66.6743C228.912 65.6588 229.391 65.3736 229.514 65.3345L229.515 65.3335C230.284 65.0889 231.115 64.586 231.809 64.0855C232.536 63.5611 233.287 62.9125 233.891 62.2447L233.89 62.2437C234.067 62.0476 234.218 61.8873 234.348 61.7544L234.365 61.7691C234.41 61.809 234.459 61.8517 234.511 61.899C235.141 62.4696 236.065 63.0548 236.973 63.5474C237.907 64.054 238.963 64.5388 239.933 64.8765C240.573 65.0997 241.179 65.4647 241.639 65.8736C242.127 66.3074 242.3 66.6513 242.331 66.7691L242.448 67.2339C243.578 72.0629 242.407 77.7238 239.828 82.2681ZM127.59 84.6411C126.784 86.0859 125.405 86.938 122.869 86.938C119.054 86.9379 114.579 84.1334 111.821 79.3999L111.496 78.8306C110.791 77.5574 110.435 76.6448 110.246 75.5826C110.018 74.2961 110.013 72.6722 110.189 69.8257L110.236 69.1636C110.357 67.6229 110.567 66.1207 110.815 64.898C110.957 64.1973 111.105 63.6202 111.244 63.1949C111.338 62.9106 111.405 62.7652 111.429 62.7118C111.437 62.6956 111.439 62.6872 111.439 62.6872L111.404 62.73C111.426 62.7028 111.439 62.6872 111.439 62.6872C111.613 62.4784 111.742 62.3256 111.853 62.2056C112.048 62.298 112.355 62.4642 112.822 62.7622C113.56 63.2341 114.523 63.914 115.868 64.8697C118.499 66.7399 122.502 69.1094 124.849 70.1685L124.85 70.1695C126.852 71.0718 127.268 71.3899 127.51 71.7622C127.636 71.9552 127.779 72.2759 127.926 72.938C128.076 73.612 128.2 74.501 128.361 75.7818C128.908 80.1596 128.515 82.9831 127.59 84.6411ZM94.2191 62.5327C94.7377 62.341 95.1858 62.1933 95.5365 62.0952C95.8197 62.016 95.9685 61.9896 96.0148 61.9814C96.0336 61.9781 96.0356 61.9777 96.0228 61.9781C96.4176 61.9679 96.9631 62.1326 97.5472 63.2105C98.1572 64.3363 98.6212 66.1922 98.7064 68.7827C98.9179 75.2135 96.7292 80.0305 93.9935 82.3443C92.6466 83.4833 91.2088 83.9946 89.8158 83.9322C88.428 83.8699 86.8406 83.2265 85.2142 81.6001C82.8265 79.2124 82.1863 75.9128 83.1537 72.6089C84.1278 69.2825 86.7404 66.0045 90.7689 64.023C91.9445 63.4447 93.1833 62.9156 94.2191 62.5327ZM264.523 45.4126C264.806 45.2982 265.174 45.2366 266.122 45.4497C269.215 46.1437 272.251 49.5277 274.117 54.7837C275.94 59.9201 276.4 66.2419 274.862 71.7808C273.975 74.9722 272.407 76.9069 270.667 77.937C268.922 78.9704 266.785 79.2248 264.509 78.6441C259.922 77.4732 254.902 72.8836 252.832 65.189C252.282 63.144 252.103 62.1146 252.138 61.2974C252.17 60.5492 252.39 59.827 253.06 58.4156C253.53 57.4253 253.959 56.4032 254.276 55.5435C254.434 55.1152 254.572 54.7057 254.673 54.3482C254.724 54.1669 254.788 53.9148 254.83 53.6431C254.89 53.5684 254.979 53.4653 255.105 53.3384C255.491 52.9489 256.065 52.4781 256.718 52.0523C258.389 50.9648 260.954 48.7617 262.519 47.0952C263.578 45.9672 264.135 45.5698 264.523 45.4126ZM141.852 56.5757C140.489 59.884 137.85 61.9378 134.467 61.938C130.265 61.938 124.674 59.2344 120.737 55.9351C118.776 54.2924 117.462 52.694 116.926 51.482C116.663 50.8864 116.664 50.5561 116.687 50.4302L116.688 50.4255C116.696 50.3767 116.716 50.2706 116.98 50.107C117.309 49.9037 117.554 49.642 117.693 49.4839C117.856 49.2974 118.016 49.0876 118.163 48.8775C118.46 48.4554 118.783 47.9301 119.112 47.3531C119.772 46.1932 120.515 44.7129 121.193 43.1802C122.686 39.8026 124.387 37.7207 126.102 36.6743L126.67 36.3443C129.485 34.7925 131.869 34.727 133.979 35.7281C136.375 36.8654 138.829 39.5674 141.107 44.3042C143.221 48.702 143.228 53.2347 141.852 56.5757ZM209.492 31.4478C213.506 29.2165 219.098 29.385 225.05 32.4947C227.335 33.6881 228.451 34.4178 229.197 35.2124C229.905 35.9675 230.402 36.9149 231.101 38.8687C231.861 40.9922 232.126 41.9909 232.148 42.8579C232.166 43.5887 232.013 44.3499 231.537 45.7964L231.314 46.4605C230.97 47.4593 230.431 48.5485 229.844 49.4761C229.223 50.4577 228.685 51.0389 228.418 51.2251C227.081 52.1585 225.019 53.9876 223.752 55.3501C222.153 57.0698 219.231 57.9599 215.833 57.6558C212.582 57.3647 209.292 56.0019 207.035 53.772L206.82 53.5533C205.694 52.3784 205.164 51.6064 204.818 50.6333C204.488 49.7057 204.287 48.4889 204.13 46.439L204.066 45.5074C203.591 38.0432 205.466 33.891 209.108 31.6714L209.492 31.4478ZM72.6742 35.7232C73.5673 35.2024 75.4057 34.8769 77.7894 35.0493C80.0941 35.2161 82.5307 35.8229 84.4115 36.7691C86.7363 37.9387 89.2463 40.4282 91.0384 43.1499C91.9227 44.4929 92.5781 45.8118 92.9427 46.9497C93.3247 48.1419 93.3071 48.883 93.1947 49.23C92.5743 51.1435 90.1478 52.8631 86.472 53.4576C82.9048 54.0344 78.9509 53.3834 76.2425 51.4546L76.0248 51.2925C73.7884 49.5667 72.0508 46.1441 71.4232 42.6372C71.1057 40.8632 71.1046 39.2274 71.3851 37.9605C71.6699 36.6742 72.1809 36.0107 72.6742 35.7232ZM97.7914 10.9829C99.0478 10.3367 100.235 10.2134 101.519 10.5738C102.877 10.9551 104.475 11.9183 106.376 13.7115C113.217 20.1638 114.969 31.1503 110.573 38.6509C109.97 39.6793 109.536 40.3894 109.174 40.897C108.807 41.4116 108.613 41.5709 108.539 41.6187L108.537 41.6207C108.527 41.6289 108.503 41.6494 108.346 41.6499C108.091 41.6508 107.699 41.5956 106.956 41.44C106.467 41.3367 105.672 40.9757 104.628 40.2593C103.619 39.5665 102.511 38.6327 101.416 37.5523C99.2012 35.3663 97.2206 32.7571 96.2513 30.6138C95.3585 28.6393 94.7077 25.5318 94.473 22.3501C94.2359 19.1353 94.4527 16.2391 95.0238 14.6343L95.1292 14.3618C95.3974 13.7159 95.8209 13.004 96.3207 12.3677C96.9133 11.6132 97.4667 11.1499 97.7914 10.9829ZM114.636 287.466C114.734 287.219 114.876 286.805 114.876 286.324C114.876 285.768 114.716 285.22 114.575 284.818C114.417 284.37 114.204 283.89 113.961 283.412C113.537 282.574 112.98 281.654 112.364 280.79L112.096 280.422C109.139 276.471 107.388 272.85 106.626 269.053C105.863 265.251 106.062 261.12 107.232 256.102C108.095 252.397 109.462 248.192 110.198 246.771L110.199 246.77L110.604 245.985L111.716 246.921C112.619 247.681 113.589 248.38 114.444 248.902C114.869 249.162 115.297 249.396 115.695 249.573C116.015 249.716 116.576 249.945 117.177 249.953C117.769 249.96 118.069 250.022 118.202 250.064C118.255 250.284 118.288 250.768 118.158 251.711C118.027 252.652 117.761 253.878 117.349 255.485C116.029 260.637 115.606 266.171 116.005 271.232C116.402 276.263 117.626 280.997 119.745 284.446L122.122 288.315L119.855 293.042C116.079 300.908 113.968 309.414 113.573 317.119C113.277 322.88 113.935 328.341 115.697 332.771C115.557 332.727 115.413 332.684 115.266 332.636C113.24 331.982 110.74 331.041 107.873 329.867C104.27 328.391 102.454 327.559 101.248 326.672C100.232 325.924 99.5966 325.094 98.6742 323.389C98.5722 322.44 98.5103 321.41 98.4837 320.272L98.4691 318.936C98.4666 315.73 98.5831 313.807 99.0042 311.988C99.4263 310.164 100.178 308.339 101.612 305.368C103.431 301.598 106.845 296.703 109.432 294.116C110.822 292.726 112.098 291.273 113.04 290.036C113.509 289.421 113.921 288.825 114.226 288.295C114.378 288.032 114.524 287.75 114.636 287.466ZM242.103 35.73C241.267 34.2009 240.876 32.0658 240.876 28.4556C240.876 22.8642 242.053 19.2758 244.084 17.0318L244.263 16.854C245.214 16.0013 247.022 15.7013 249.43 16.5835C251.902 17.4894 254.367 19.4703 255.714 22.065C256.709 23.9822 257.249 26.9288 257.183 30.1128C257.117 33.2814 256.457 36.3908 255.327 38.5923C254.16 40.8703 253.127 42.3585 252.38 43.1079C252.239 42.983 252.107 42.8733 251.997 42.7876C251.613 42.4871 251.139 42.1599 250.62 41.8267C249.58 41.1577 248.262 40.4045 246.908 39.7183C244.277 38.3848 242.908 37.2028 242.103 35.73Z" fill="#3B468B"/>
<path fill-rule="evenodd" clip-rule="evenodd" d="M122.869 86.938C125.405 86.938 126.784 86.0859 127.59 84.6411C128.515 82.9831 128.908 80.1596 128.361 75.7818C128.2 74.501 128.076 73.612 127.926 72.938C127.779 72.2759 127.636 71.9552 127.51 71.7622C127.268 71.3899 126.852 71.0718 124.85 70.1695L124.849 70.1685C122.502 69.1094 118.499 66.7399 115.868 64.8697C114.523 63.914 113.56 63.2341 112.822 62.7622C112.355 62.4642 112.048 62.298 111.853 62.2056C111.742 62.3256 111.613 62.4784 111.439 62.6872C111.439 62.6872 111.437 62.6956 111.429 62.7118C111.405 62.7652 111.338 62.9106 111.244 63.1949C111.105 63.6202 110.957 64.1973 110.815 64.898C110.567 66.1207 110.357 67.6229 110.236 69.1636L110.189 69.8257C110.013 72.6722 110.018 74.2961 110.246 75.5826C110.435 76.6448 110.791 77.5574 111.496 78.8306L111.821 79.3999C114.579 84.1334 119.054 86.9379 122.869 86.938ZM95.5365 62.0952C95.8197 62.016 95.9685 61.9896 96.0148 61.9814C96.0336 61.9781 96.0356 61.9777 96.0228 61.9781C96.4176 61.9679 96.9631 62.1326 97.5472 63.2105C98.1572 64.3363 98.6212 66.1922 98.7064 68.7827C98.9179 75.2135 96.7292 80.0305 93.9935 82.3443C92.6466 83.4833 91.2088 83.9946 89.8158 83.9322C88.428 83.8699 86.8406 83.2265 85.2142 81.6001C82.8265 79.2124 82.1863 75.9128 83.1537 72.6089C84.1278 69.2825 86.7404 66.0045 90.7689 64.023C91.9445 63.4447 93.1833 62.9156 94.2191 62.5327C94.7377 62.341 95.1858 62.1933 95.5365 62.0952ZM141.852 56.5757C140.489 59.884 137.85 61.9378 134.467 61.938C130.265 61.938 124.674 59.2344 120.737 55.9351C118.776 54.2924 117.462 52.694 116.926 51.482C116.663 50.8864 116.664 50.5561 116.687 50.4302L116.688 50.4255C116.696 50.3767 116.716 50.2706 116.98 50.107C117.309 49.9037 117.554 49.642 117.693 49.4839C117.856 49.2974 118.016 49.0876 118.163 48.8775C118.46 48.4554 118.783 47.9301 119.112 47.3531C119.772 46.1932 120.515 44.7129 121.193 43.1802C122.686 39.8026 124.387 37.7207 126.102 36.6743L126.67 36.3443C129.485 34.7925 131.869 34.727 133.979 35.7281C136.375 36.8654 138.829 39.5674 141.107 44.3042C143.221 48.702 143.228 53.2347 141.852 56.5757ZM72.6742 35.7232C73.5673 35.2024 75.4057 34.8769 77.7894 35.0493C80.0941 35.2161 82.5307 35.8229 84.4115 36.7691C86.7363 37.9387 89.2463 40.4282 91.0384 43.1499C91.9227 44.4929 92.5781 45.8118 92.9427 46.9497C93.3247 48.1419 93.3071 48.883 93.1947 49.23C92.5743 51.1435 90.1478 52.8631 86.472 53.4576C82.9048 54.0344 78.9509 53.3834 76.2425 51.4546L76.0248 51.2925C73.7884 49.5667 72.0508 46.1441 71.4232 42.6372C71.1057 40.8632 71.1046 39.2274 71.3851 37.9605C71.6699 36.6742 72.1809 36.0107 72.6742 35.7232ZM97.7914 10.9829C99.0478 10.3367 100.235 10.2134 101.519 10.5738C102.877 10.9551 104.475 11.9183 106.376 13.7115C113.217 20.1638 114.969 31.1503 110.573 38.6509C109.97 39.6793 109.536 40.3894 109.174 40.897C108.807 41.4116 108.613 41.5709 108.539 41.6187L108.537 41.6207C108.527 41.6289 108.503 41.6494 108.346 41.6499C108.091 41.6508 107.699 41.5956 106.956 41.44C106.467 41.3367 105.672 40.9757 104.628 40.2593C103.619 39.5665 102.511 38.6327 101.416 37.5523C99.2012 35.3663 97.2206 32.7571 96.2513 30.6138C95.3585 28.6393 94.7077 25.5318 94.473 22.3501C94.2359 19.1353 94.4527 16.2391 95.0238 14.6343L95.1292 14.3618C95.3974 13.7159 95.8209 13.004 96.3207 12.3677C96.9133 11.6132 97.4667 11.1499 97.7914 10.9829Z" fill="#E2E18F"/>
<path d="M125.769 255.64C125.003 258.279 124.376 263.847 124.376 268.013C124.376 275.032 124.654 276.039 128.16 281.719L131.945 287.85L128.529 295.144C123.3 306.311 122.455 309.687 122.414 319.583C122.377 328.43 122.482 328.861 125.626 332.775C127.299 334.857 128.687 337.15 128.859 338.083L136.413 339.344C141.665 340.22 147.755 341.061 149.972 341.215C147.755 335.2 147.81 334.744 149.294 328.95C151.878 318.867 151.371 307.772 147.731 294.734C144.639 283.66 144.597 283.209 145.239 268.32L145.892 253.173L139.134 252.513C135.417 252.151 131.203 251.626 129.769 251.348C127.385 250.885 127.044 251.25 125.769 255.64Z" fill="#E2E18F"/>
<path d="M179.876 246.555C176.851 247.83 174.002 249.013 173.544 249.183C173.086 249.353 174.309 251.866 176.261 254.767C178.213 257.668 180.273 261.706 180.838 263.74C182.347 269.172 182.1 278.822 180.296 284.894L178.717 290.214L181.823 296.333C183.531 299.699 185.587 304.925 186.391 307.946C188.526 315.97 188.3 328.743 185.896 335.879L184.033 341.41C187.653 341.444 201.45 336.835 204.266 333.76C207.137 327.294 208.114 319.767 206.841 312.706C205.532 305.45 200.67 295.677 196.949 292.825C195.534 291.74 193.311 290.06 192.01 289.092L189.643 287.331L192.49 281.885C194.921 277.235 195.34 275.268 195.356 268.438C195.371 261.801 194.922 259.501 192.717 254.938C191.256 251.913 189.006 248.268 187.718 246.837L185.376 244.236L179.876 246.555Z" fill="#E2E18F"/>
</svg>
